<svg width="20" height="20" viewBox="0 0 20 20" fill="none" xmlns="http://www.w3.org/2000/svg">
<path d="M14.9579 12.5786H14.0546L13.7344 12.2699C14.855 10.9663 15.5297 9.27387 15.5297 7.43282C15.5297 3.32762 12.2021 0 8.09688 0C3.99168 0 0.664062 3.32762 0.664062 7.43282C0.664062 11.538 3.99168 14.8656 8.09688 14.8656C9.93793 14.8656 11.6303 14.191 12.9339 13.0703L13.2427 13.3905V14.2939L18.9602 20L20.6641 18.2962L14.9579 12.5786ZM8.09688 12.5786C5.24954 12.5786 2.95108 10.2802 2.95108 7.43282C2.95108 4.58548 5.24954 2.28702 8.09688 2.28702C10.9442 2.28702 13.2427 4.58548 13.2427 7.43282C13.2427 10.2802 10.9442 12.5786 8.09688 12.5786Z" fill="white"/>
</svg>
