<svg width="14" height="12" viewBox="0 0 14 12" fill="none" xmlns="http://www.w3.org/2000/svg">
<path d="M12.332 0.666016H1.66536C0.925365 0.666016 0.338698 1.25935 0.338698 1.99935L0.332031 9.99935C0.332031 10.7393 0.925365 11.3327 1.66536 11.3327H12.332C13.072 11.3327 13.6654 10.7393 13.6654 9.99935V1.99935C13.6654 1.25935 13.072 0.666016 12.332 0.666016ZM4.66536 7.99935H3.86536L2.16536 5.66602V7.99935H1.33203V3.99935H2.16536L3.83203 6.33268V3.99935H4.66536V7.99935ZM7.9987 4.83935H6.33203V5.58602H7.9987V6.42602H6.33203V7.16602H7.9987V7.99935H5.33203V3.99935H7.9987V4.83935ZM12.6654 7.33268C12.6654 7.69935 12.3654 7.99935 11.9987 7.99935H9.33203C8.96536 7.99935 8.66536 7.69935 8.66536 7.33268V3.99935H9.4987V7.00602H10.252V4.65935H11.0854V6.99935H11.832V3.99935H12.6654V7.33268Z" fill="black"/>
</svg>
