<svg width="16" height="16" viewBox="0 0 16 16" fill="none" xmlns="http://www.w3.org/2000/svg">
<g clip-path="url(#clip0_172_1622)">
<path d="M5.9987 14.0007C5.9987 14.3673 6.2987 14.6673 6.66536 14.6673H9.33203C9.6987 14.6673 9.9987 14.3673 9.9987 14.0007V13.334H5.9987V14.0007ZM7.9987 1.33398C5.42536 1.33398 3.33203 3.42732 3.33203 6.00065C3.33203 7.58732 4.12536 8.98065 5.33203 9.82732V11.334C5.33203 11.7007 5.63203 12.0007 5.9987 12.0007H9.9987C10.3654 12.0007 10.6654 11.7007 10.6654 11.334V9.82732C11.872 8.98065 12.6654 7.58732 12.6654 6.00065C12.6654 3.42732 10.572 1.33398 7.9987 1.33398ZM9.33203 9.13398V10.6673H6.66536V9.13398C5.65203 8.42065 4.66536 7.68732 4.66536 6.00065C4.66536 4.16065 6.1587 2.66732 7.9987 2.66732C9.8387 2.66732 11.332 4.16065 11.332 6.00065C11.332 7.66065 10.3254 8.43398 9.33203 9.13398Z" fill="black"/>
</g>
<defs>
<clipPath id="clip0_172_1622">
<rect width="16" height="16" fill="white"/>
</clipPath>
</defs>
</svg>
