<svg width="40" height="40" viewBox="0 0 40 40" fill="none" xmlns="http://www.w3.org/2000/svg">
<g clip-path="url(#clip0_172_3389)">
<path d="M31.668 23.3337V10.0003C31.668 8.16699 30.168 6.66699 28.3346 6.66699H5.0013C3.16797 6.66699 1.66797 8.16699 1.66797 10.0003V23.3337C1.66797 25.167 3.16797 26.667 5.0013 26.667H28.3346C30.168 26.667 31.668 25.167 31.668 23.3337ZM16.668 21.667C13.9013 21.667 11.668 19.4337 11.668 16.667C11.668 13.9003 13.9013 11.667 16.668 11.667C19.4346 11.667 21.668 13.9003 21.668 16.667C21.668 19.4337 19.4346 21.667 16.668 21.667ZM38.3346 11.667V30.0003C38.3346 31.8337 36.8346 33.3337 35.0013 33.3337H6.66797V30.0003H35.0013V11.667H38.3346Z" fill="white"/>
</g>
<defs>
<clipPath id="clip0_172_3389">
<rect width="40" height="40" fill="white"/>
</clipPath>
</defs>
</svg>
